<?xml version="1.0" encoding="utf-8"?>
<!-- Generator: Adobe Illustrator 23.1.0, SVG Export Plug-In . SVG Version: 6.00 Build 0)  -->
<svg version="1.1" id="Layer_1" xmlns="http://www.w3.org/2000/svg" xmlns:xlink="http://www.w3.org/1999/xlink" x="0px" y="0px"
	 viewBox="0 0 193.44 418.76" style="enable-background:new 0 0 193.44 418.76;" xml:space="preserve">
<style type="text/css">
	.st0{fill:#f5f5f5;}
	.st1{stroke:#f5f5f5;stroke-width:0.025;stroke-miterlimit:10; fill: green}
</style>
<g>
	<path class="st0" d="M193.41,193.94c-0.09,0.32-0.35,0.57-0.65,0.71s-0.63,0.19-0.96,0.22c-1.16,0.09-2.23-0.56-3.23-1.11
		c-0.56-0.3-1.09-0.64-1.64-0.96c-0.48-0.29-1.13-0.81-1.68-0.87c0.04,0.42,0.36,0.82,0.59,1.16c2.56,3.88,3.83,8.47,4.82,12.95
		c0.31,1.39,0.7,2.81,0.77,4.24c0.03,0.57,0.02,1.16-0.22,1.68c-0.23,0.52-0.72,0.97-1.29,0.99c-0.7,0.03-1.21-0.57-1.77-0.93
		c0.55,1.11,0.81,2.37,0.74,3.6c-0.03,0.39-0.08,0.78-0.26,1.12c-0.17,0.35-0.47,0.65-0.84,0.73c-1.35,0.32-2.77-1.69-3.25-2.71
		c0.2,0.51,0.3,1.05,0.3,1.59c0,0.46-0.1,0.97-0.47,1.25c-0.33,0.25-0.79,0.25-1.17,0.1c-1.1-0.45-1.89-1.9-2.46-2.88
		c-0.68-1.18-1.22-2.43-1.76-3.68c-0.86-2.01-1.72-4.02-2.58-6.03c0.4,1.33,0.83,2.65,1.29,3.96c0.56,1.61,1.16,3.24,1.2,4.96
		c0,0.17-0.01,0.35-0.11,0.49c-0.2,0.25-0.6,0.17-0.88,0.02c-0.93-0.51-1.46-1.59-2.02-2.45c-0.64-0.98-1.23-2-1.78-3.03
		c-0.7-1.33-1.28-2.74-1.91-4.11c-0.66-1.46-1.26-2.93-1.8-4.43c-0.9-2.52-1.51-5.07-2.19-7.64c-0.45-1.72-0.88-3.44-1.29-5.17
		c-0.19-0.81-0.3-1.64-0.49-2.44c-0.19-0.78-0.69-1.48-1.14-2.12c-3.75-5.27-8.18-10.04-12.19-15.11
		c-3.7-4.66-7.26-9.44-10.62-14.34c-1.7-2.48-2.89-5.27-3.71-8.14c-0.42-1.46-0.74-2.94-0.98-4.43c-0.23-1.44-0.16-2.87-0.79-4.21
		c-0.64-1.35-1.45-2.62-2.12-3.95c-2.41-4.79-4.05-10.08-4.91-15.37c-0.57-3.52-1.11-7.04-1.42-10.6c-0.65,2.87-1.49,5.72-3.07,8.21
		c-0.7,1.11-1.51,2.16-2.01,3.38c-0.29,0.72-0.47,1.48-0.6,2.25c-0.87,4.85-0.54,9.97-0.62,14.88c-0.05,3.28-0.1,6.56-0.16,9.84
		c-0.02,1.57-0.3,7.04-0.14,8.2c0.15,1.04,0.99,1.99,1.53,2.88c1.22,2,2.42,4.02,3.57,6.06c1.7,3.05,3.29,6.17,4.62,9.41
		c1.36,3.32,2.15,6.68,2.97,10.17c0.24,1,0.48,2,0.69,3c2.13,9.91,2,19.9,1.2,29.95c-0.27,3.45-1.88,16.32-2.65,19.27
		c0,0-4.81,24.68-7.94,35.3c0,0-3.45,11.58-4.54,18.33c0,0,0,5.42-1.16,8.09c0,0,1.83,4.16,1,7c0,0,10.58,23.75,1.75,45.75
		c0,0-5.17,17-6.5,22.5c-1.13,4.65-1.23,9.39-1.42,14.15c-0.05,1.33-0.1,2.69,0.32,3.96c0.29,0.88,0.8,1.68,1.12,2.56
		c0.6,1.62,0.51,3.41,0.24,5.11c-0.14,0.89-0.33,1.8-0.2,2.69c0.2,1.39,1.12,2.5,1.95,3.57c0.84,1.07,1.41,1.81,1.92,3.09
		c1.01,2.56,2.29,5.15,4.54,6.83c0.77,0.58,1.66,1.06,2.18,1.87c0.51,0.81,0.56,1.81,0.6,2.77c-2.19,0.48-4.47,0.41-6.7,0.46
		c-2.38,0.06-4.75,0.12-7.13,0.18c-3.15,0.07-6.32,0.15-9.44-0.27c-0.76-0.1-1.35-0.66-1.61-1.36c-0.21-0.57-0.24-1.18-0.27-1.78
		c-0.13-3.15-0.16-6.32,0.14-9.46c0.15-1.58,0.39-3.16,0.75-4.71c0.25-1.06,1.28-2.96,0.94-4.02c-0.15-0.48-0.46-0.9-0.64-1.37
		c-0.33-0.82-0.26-1.75-0.05-2.61c0.22-0.86,0.56-1.68,0.76-2.54c0.37-1.55,0.27-3.19,0.29-4.78c0.01-1.86,0-3.72-0.05-5.58
		c-0.12-4.47-0.41-8.93-0.68-13.38c-0.13-2.18-0.17-4.38-0.3-6.55c-0.11-1.93-0.9-3.89-1.37-5.79c-0.9-3.74-1.59-7.53-2.05-11.35
		c-0.35-2.84-0.78-5.59-0.73-8.46c0.06-3.14,0.4-6.27,0.74-9.39c0.41-3.83,1.32-7.67,1.9-11.5c1.23-8.16,1.97-16.41,1.47-24.65
		c-0.81-13.57-3.69-26.89-4.48-40.47c-0.59-10.25-1-20.55-0.39-30.81c0.22-3.62,0.41-7.28,1.14-10.84
		c-1.06,0.07-2.18,0.05-3.25-0.01c-1.06,0.06-2.18,0.08-3.24,0.01c0.72,3.56,0.92,7.22,1.13,10.84c0.61,10.26,0.21,20.56-0.38,30.81
		c-0.79,13.58-3.67,26.9-4.49,40.47c-0.49,8.24,0.25,16.49,1.48,24.65c0.58,3.83,1.48,7.67,1.9,11.5c0.34,3.12,0.68,6.25,0.74,9.39
		c0.05,2.87-0.38,5.62-0.73,8.46c-0.46,3.82-1.15,7.61-2.06,11.35c-0.46,1.9-1.25,3.86-1.36,5.79c-0.13,2.17-0.17,4.37-0.3,6.55
		c-0.27,4.45-0.56,8.91-0.68,13.38c-0.05,1.86-0.07,3.72-0.05,5.58c0.02,1.59-0.08,3.23,0.29,4.78c0.2,0.86,0.54,1.68,0.75,2.54
		c0.22,0.86,0.29,1.79-0.04,2.61c-0.18,0.47-0.49,0.89-0.65,1.37c-0.33,1.06,0.7,2.96,0.95,4.02c0.36,1.55,0.6,3.13,0.75,4.71
		c0.3,3.14,0.27,6.31,0.14,9.46c-0.03,0.6-0.06,1.21-0.27,1.78c-0.26,0.7-0.86,1.26-1.61,1.36c-3.13,0.42-6.29,0.34-9.44,0.27
		c-2.38-0.06-4.75-0.12-7.13-0.18c-2.23-0.05-4.51,0.02-6.7-0.46c0.04-0.96,0.09-1.96,0.6-2.77s1.41-1.29,2.18-1.87
		c2.25-1.68,3.53-4.27,4.54-6.83c0.5-1.28,1.08-2.02,1.92-3.09c0.83-1.07,1.75-2.18,1.95-3.57c0.13-0.89-0.06-1.8-0.2-2.69
		c-0.27-1.7-0.36-3.49,0.23-5.11c0.33-0.88,0.84-1.68,1.13-2.56c0.42-1.27,0.37-2.63,0.32-3.96c-0.19-4.76-0.29-9.5-1.42-14.15
		c-1.33-5.5-6.5-22.5-6.5-22.5c-8.83-22,1.75-45.75,1.75-45.75c-0.83-2.84,1-7,1-7c-1.16-2.67-1.16-8.09-1.16-8.09
		c-1.09-6.75-4.54-18.33-4.54-18.33c-3.13-10.62-7.94-35.3-7.94-35.3c-0.77-2.95-2.38-15.82-2.66-19.27
		c-0.79-10.05-0.92-20.04,1.21-29.95c0.21-1,0.45-2,0.69-3c0.82-3.49,1.61-6.85,2.97-10.17c1.33-3.24,2.92-6.36,4.62-9.41
		c1.15-2.04,2.35-4.06,3.57-6.06c0.54-0.89,1.38-1.84,1.53-2.88c0.16-1.16-0.12-6.63-0.14-8.2c-0.06-3.28-0.11-6.56-0.16-9.84
		c-0.08-4.91,0.25-10.03-0.62-14.88c-0.13-0.77-0.31-1.53-0.6-2.25c-0.5-1.22-1.31-2.27-2.01-3.38c-1.58-2.49-2.42-5.34-3.07-8.21
		c-0.32,3.56-0.85,7.08-1.42,10.6c-0.86,5.29-2.5,10.58-4.91,15.37c-0.68,1.33-1.48,2.6-2.12,3.95c-0.63,1.34-0.56,2.77-0.79,4.21
		c-0.24,1.49-0.57,2.97-0.98,4.43c-0.82,2.87-2.01,5.66-3.71,8.14c-3.36,4.9-6.92,9.68-10.62,14.34
		c-4.01,5.07-8.44,9.84-12.19,15.11c-0.45,0.64-0.95,1.34-1.14,2.12c-0.19,0.8-0.3,1.63-0.49,2.44c-0.41,1.73-0.84,3.45-1.3,5.17
		c-0.67,2.57-1.28,5.12-2.19,7.64c-0.53,1.5-1.13,2.97-1.79,4.43c-0.63,1.37-1.21,2.78-1.91,4.11c-0.55,1.03-1.14,2.05-1.78,3.03
		c-0.56,0.86-1.09,1.94-2.02,2.45c-0.28,0.15-0.68,0.23-0.88-0.02c-0.11-0.14-0.11-0.32-0.11-0.49c0.04-1.72,0.64-3.35,1.2-4.96
		c0.46-1.31,0.89-2.63,1.29-3.96c-0.86,2.01-1.72,4.02-2.59,6.03c-0.53,1.25-1.07,2.5-1.75,3.68c-0.57,0.98-1.36,2.43-2.46,2.88
		c-0.38,0.15-0.85,0.15-1.17-0.1c-0.37-0.28-0.47-0.79-0.47-1.25c0-0.54,0.1-1.08,0.3-1.59c-0.48,1.02-1.9,3.03-3.25,2.71
		c-0.37-0.08-0.67-0.38-0.85-0.73c-0.17-0.34-0.22-0.73-0.25-1.12c-0.07-1.23,0.18-2.49,0.74-3.6c-0.56,0.36-1.07,0.96-1.77,0.93
		c-0.57-0.02-1.06-0.47-1.29-0.99c-0.24-0.52-0.25-1.11-0.22-1.68c0.07-1.43,0.46-2.85,0.77-4.24c0.99-4.48,2.26-9.07,4.82-12.95
		c0.23-0.34,0.55-0.74,0.59-1.16c-0.55,0.06-1.2,0.58-1.68,0.87c-0.55,0.32-1.08,0.66-1.64,0.96c-1,0.55-2.07,1.2-3.23,1.11
		c-0.33-0.03-0.67-0.08-0.96-0.22c-0.3-0.14-0.56-0.39-0.65-0.71c-0.08-0.28-0.01-0.59,0.08-0.87c0.63-1.97,2.39-2.83,4.12-3.72
		c1.16-0.61,2.43-1.11,3.51-1.84c1.35-0.92,2.45-2.14,3.66-3.23c0.96-0.87,2.03-1.68,3.27-2.11c0.57-0.2,1.09-0.18,1.61-0.48
		c0.5-0.28,0.93-0.7,1.33-1.1c2.96-2.89,4.63-6.44,6.31-10.15c2.01-4.41,3.66-8.97,4.96-13.63c1.24-4.47,3.04-9,5.47-12.96
		c2.47-4.04,4.95-7.92,8.07-11.49c0.15-0.17,0.31-0.35,0.38-0.57c0.06-0.18,0.06-0.37,0.06-0.56c-0.03-4.05-0.04-8,0.4-12.02
		c0.42-3.86,1.2-7.7,2.58-11.34c0.34-0.88,0.71-1.74,1.03-2.62c0.63-1.73,1.27-3.7,1.45-5.53c0.15-1.67,0-3.35-0.15-5.02
		c-0.53-5.85-0.98-11.88,0.75-17.5c1.11-3.59,4.66-6.49,8.11-7.71c3.98-1.4,8.3-1.31,12.46-1.52c4.39-0.22,8.98-0.86,12.5-3.48
		c2.62-1.95,4.43-4.89,5.3-8.04c0.88-3.15,0.86-6.51,0.29-9.73h18.27c-0.57,3.22-0.59,6.58,0.29,9.73c0.87,3.15,2.68,6.09,5.3,8.04
		c3.52,2.62,8.11,3.26,12.5,3.48c4.16,0.21,8.48,0.12,12.46,1.52c3.45,1.22,7,4.12,8.1,7.71c1.74,5.62,1.29,11.65,0.76,17.5
		c-0.15,1.67-0.3,3.35-0.15,5.02c0.17,1.83,0.81,3.8,1.45,5.53c0.32,0.88,0.69,1.74,1.03,2.62c1.38,3.64,2.16,7.48,2.58,11.34
		c0.44,4.02,0.43,7.97,0.4,12.02c0,0.19,0,0.38,0.06,0.56c0.07,0.22,0.23,0.4,0.38,0.57c3.12,3.57,5.6,7.45,8.07,11.49
		c2.43,3.96,4.23,8.49,5.47,12.96c1.3,4.66,2.95,9.22,4.95,13.63c1.69,3.71,3.36,7.26,6.32,10.15c0.4,0.4,0.83,0.82,1.33,1.1
		c0.52,0.3,1.04,0.28,1.61,0.48c1.23,0.43,2.31,1.24,3.27,2.11c1.21,1.09,2.31,2.31,3.66,3.23c1.08,0.73,2.35,1.23,3.51,1.84
		c1.72,0.89,3.48,1.75,4.12,3.72C193.42,193.35,193.48,193.66,193.41,193.94z"/>
</g>
<path class="st1 blank-color" d="M118.3,31.14c-0.35-0.15-0.74-0.24-1.1-0.15c0,0,5.74-30.98-20.09-30.98c-25.83,0-20.09,30.98-20.09,30.98
	c-0.36-0.09-0.74,0-1.1,0.15c-0.77,0.33-1.14,1.22-0.91,2.02c2.96,10.19,3.51,8.13,3.51,8.13C85.44,60.8,97.11,60.4,97.11,60.4
	s11.67,0.39,18.59-19.11c0,0,0.55,2.06,3.51-8.13C119.44,32.36,119.07,31.47,118.3,31.14z"/>
<g class="section blank-color" data-name="right-foot">
	<path class="st1" d="M78.6,403.63l4.47,3.83c0.28,0.24,0.4,0.61,0.33,0.96l-1.63,7.64c-0.12,0.55-0.64,0.92-1.19,0.85
		c0,0-2.88,0.3-5.27,0.01c-2.55-0.31-5.17-0.97-5.17-0.97c-0.66-0.09-0.99-0.85-0.6-1.39l7.99-10.81
		C77.77,403.41,78.27,403.35,78.6,403.63z"/>
	<path class="st1" d="M86.21,409.04c-0.25-0.31-0.74-0.26-0.92,0.1c-0.38,0.73-0.87,2.39-0.94,3.17c-0.07,0.72-0.05,2.39-0.03,3.47
		c0.01,0.56,0.45,1.01,1.01,1.05l2.45,0.17c0.47,0.03,0.86-0.35,0.85-0.82l-0.09-2.61c0-0.56-0.17-1.1-0.49-1.55L86.21,409.04z"/>
	<path class="st1" d="M79.22,385.74c0,0-0.44,6.06-0.68,7.4c-0.19,1.04-0.74,2.59-0.98,3.12c-0.66,1.45,0.19,2.56,1.26,3.74
		c0,0,2.94,2.28,3.83,3.23c1.27,1.36,4.78,6.01,4.78,6.01c0.38,0.42,1.08,0.16,1.11-0.4l-0.01-7.65c0.07-1.37-0.51-2.55-1.07-3.8
		c-0.68-1.53-1.51-4.82-2.31-6.33c-0.78-1.48-3.83-5.76-3.83-5.76C80.74,384.39,79.37,384.69,79.22,385.74z"/>
	<path class="st1" d="M80.95,378.82c0,0,0.29-0.3,0.36-0.41c0.09-0.13,0.27-0.57,0.27-0.57c0.19-0.3,0.58-0.38,0.88-0.18l3.44,2.3
		c0.82,0.54,1.31,1.46,1.31,2.44v7.89c0,0.25-0.33,0.34-0.46,0.12c0,0-2.37-4.92-3.27-6.48c-0.56-0.97-2.56-3.62-2.56-3.62
		C80.65,379.83,80.66,379.26,80.95,378.82z"/>
</g>
<g class="section blank-color" data-name="left-foot">
	<path class="st1" d="M115.63,403.63l-4.47,3.83c-0.28,0.24-0.4,0.61-0.33,0.96l1.63,7.64c0.12,0.55,0.64,0.92,1.19,0.85
		c0,0,2.88,0.3,5.27,0.01c2.55-0.31,5.17-0.97,5.17-0.97c0.66-0.09,0.99-0.85,0.6-1.39l-7.99-10.81
		C116.46,403.41,115.96,403.35,115.63,403.63z"/>
	<path class="st1" d="M108.02,409.04c0.25-0.31,0.74-0.26,0.92,0.1c0.38,0.73,0.87,2.39,0.94,3.17c0.07,0.72,0.05,2.39,0.03,3.47
		c-0.01,0.56-0.45,1.01-1.01,1.05l-2.45,0.17c-0.47,0.03-0.86-0.35-0.85-0.82l0.09-2.61c0-0.56,0.17-1.1,0.49-1.55L108.02,409.04z"
		/>
	<path class="st1" d="M115.01,385.74c0,0,0.44,6.06,0.68,7.4c0.19,1.04,0.74,2.59,0.98,3.12c0.66,1.45-0.19,2.56-1.26,3.74
		c0,0-2.94,2.28-3.83,3.23c-1.27,1.36-4.78,6.01-4.78,6.01c-0.38,0.42-1.08,0.16-1.11-0.4l0.01-7.65c-0.07-1.37,0.51-2.55,1.07-3.8
		c0.68-1.53,1.51-4.82,2.31-6.33c0.78-1.48,3.83-5.76,3.83-5.76C113.49,384.39,114.86,384.69,115.01,385.74z"/>
	<path class="st1" d="M113.28,378.82c0,0-0.29-0.3-0.36-0.41c-0.09-0.13-0.27-0.57-0.27-0.57c-0.19-0.3-0.58-0.38-0.88-0.18
		l-3.44,2.3c-0.82,0.54-1.31,1.46-1.31,2.44v7.89c0,0.25,0.33,0.34,0.46,0.12c0,0,2.37-4.92,3.27-6.48
		c0.56-0.97,2.56-3.62,2.56-3.62C113.58,379.83,113.56,379.26,113.28,378.82z"/>
</g>
<g class="section blank-color" data-name="right-leg">
	<path class="st1" d="M70.23,317.64l-1.04,18.75l12.43,38.3c0.13,0.38,0.7,0.24,0.63-0.16c0,0-2.64-11.59-3.32-15.52
		c-0.97-5.6-3.3-22.6-3.3-22.6c-0.18-1.06-0.41-2.11-0.67-3.15l-4-15.69C70.84,317.16,70.25,317.22,70.23,317.64z"/>
	<path class="st1" d="M72.01,304.14v10.1c0.05,2.05,0.31,4.1,0.76,6.1c0,0,2.95,11.59,4.56,18.9c1.37,6.2,4.23,25.03,4.23,25.03
		l2.2,12.42c0,0,1.03,1.03,1.37-0.39c0.34-1.42-2.2-10.61-2.2-10.61s-1.32-3.82-1.32-11.49c0,0-1.86-20.15-3.08-26.71
		c-0.89-4.8-4.47-18.41-5.87-23.44C72.55,303.68,72.01,303.75,72.01,304.14z"/>
	<path class="st1" d="M87.2,303.27c0,0-5.63,12.72-4.95,29.05c0.68,16.34,0.29,27.49,3.32,38.25c0,0,5.32-16.14,6.62-31.61
		c0.19-2.22,0.14-4.45-0.09-6.67C91.42,325.78,89.66,310.8,87.2,303.27z"/>
	<path class="st1" d="M87.13,281.57c-0.27,2.76-1.05,9-2.88,12.88c-0.48,1.02-0.87,2.08-1.09,3.19c-0.49,2.44-1.13,6.65-0.65,10
		c0.03,0.23,0.37,0.24,0.42,0.01c0.33-1.55,1.09-4.48,2.6-6.91c2.03-3.27,2.89-12.27,1.93-19.18
		C87.44,281.37,87.15,281.37,87.13,281.57z"/>
</g>
<g class="section blank-color" data-name="left-leg">
	<path class="st1" d="M123,317.64l1.04,18.75l-12.43,38.3c-0.13,0.38-0.7,0.24-0.63-0.16c0,0,2.64-11.59,3.32-15.52
		c0.97-5.6,3.3-22.6,3.3-22.6c0.18-1.06,0.41-2.11,0.67-3.15l4-15.69C122.38,317.16,122.98,317.22,123,317.64z"/>
	<path class="st1" d="M121.22,304.14v10.1c-0.05,2.05-0.31,4.1-0.76,6.1c0,0-2.95,11.59-4.56,18.9c-1.37,6.2-4.23,25.03-4.23,25.03
		l-2.2,12.42c0,0-1.03,1.03-1.37-0.39c-0.34-1.42,2.2-10.61,2.2-10.61s1.32-3.82,1.32-11.49c0,0,1.86-20.15,3.08-26.71
		c0.89-4.8,4.47-18.41,5.87-23.44C120.68,303.68,121.22,303.75,121.22,304.14z"/>
	<path class="st1" d="M106.03,303.27c0,0,5.63,12.72,4.95,29.05c-0.68,16.34-0.29,27.49-3.32,38.25c0,0-5.32-16.14-6.62-31.61
		c-0.19-2.22-0.14-4.45,0.09-6.67C101.81,325.78,103.57,310.8,106.03,303.27z"/>
	<path class="st1" d="M106.09,281.57c0.27,2.76,1.05,9,2.88,12.88c0.48,1.02,0.87,2.08,1.09,3.19c0.49,2.44,1.13,6.65,0.65,10
		c-0.03,0.23-0.37,0.24-0.42,0.01c-0.33-1.55-1.09-4.48-2.6-6.91c-2.03-3.27-2.89-12.27-1.93-19.18
		C105.78,281.37,106.07,281.37,106.09,281.57z"/>
</g>
<g class="section blank-color" data-name="right-lap">
	<path class="st1" d="M85.1,233.03c0,0-1.2-3.33-1.3,0c-0.1,3.33,2.45,15.95,1.76,20.35c-0.68,4.4-3.48,23.58,0.12,24.55
		s4.58-6.65,4.58-6.65S94.23,254.85,85.1,233.03z"/>
	<path class="st1" d="M60.72,201.53c0,0-4.16,22.58,2.54,42.78c0,0,5.42,21.77,8.35,28.63c0.18,0.42,1.28,1.41,1.72-0.61
		c0.66-2.99-0.95-27.17-4.47-33.95C68.87,238.38,62.42,220.12,60.72,201.53z"/>
	<path class="st1" d="M76.11,253.64l0.33,19.92c0,0,0.91,3.37,3.39,0.37c0,0,2.54-16.43,2.15-31.17s-3.65-25.08-9.62-44.54
		c-4.61-15.04-6.65-22.32-7.34-24.85c-0.09-0.34-0.58-0.36-0.69-0.02C62.59,178.48,56.64,202.67,76.11,253.64z"/>
	<path class="st1" d="M67.9,168.47c-0.05-0.23-0.39-0.18-0.38,0.05c0.24,5.17,2.14,21.37,15.24,52.39c0,0,5.04,12.62,7.89,25.8
		c0.06,0.27,0.45,0.22,0.44-0.05c-0.18-7.46-1.69-31.8-13.56-53.14C77.55,193.51,71.39,183.85,67.9,168.47z"/>
	<path class="st1" d="M71.29,170.37c2.45,3.65,8.29,11.93,13.64,16.2l2.47,2.62c0.9,0.95,1.1,2.37,0.51,3.54l-4.15,9.04
		c-0.33,0.65-1.29,0.49-1.39-0.22c-0.35-2.42-0.77-7.3-1.55-9.29c-0.99-2.54-7.41-16.51-9.81-21.72
		C70.93,170.34,71.18,170.21,71.29,170.37z"/>
	<path class="st1" d="M92.44,194.74c0.13,3.86-0.26,14.82-2.98,23.14c-0.21,0.64-1.16,0.52-1.22-0.15c0,0,0.36-4.51,0-5.95
		c-0.19-0.74-0.95-2.12-1.62-3.24c-0.62-1.04-0.59-2.34,0.08-3.35c1.37-2.08,3.66-5.94,5.13-10.51
		C91.95,194.34,92.43,194.39,92.44,194.74z"/>
</g>
<g class="section blank-color" data-name="left-lap">
	<path class="st1" d="M109.12,233.03c0,0,1.2-3.33,1.3,0c0.1,3.33-2.45,15.95-1.76,20.35c0.68,4.4,3.48,23.58-0.12,24.55
		s-4.58-6.65-4.58-6.65S100,254.85,109.12,233.03z"/>
	<path class="st1" d="M133.5,201.53c0,0,4.16,22.58-2.54,42.78c0,0-5.42,21.77-8.35,28.63c-0.18,0.42-1.28,1.41-1.72-0.61
		c-0.66-2.99,0.95-27.17,4.47-33.95C125.35,238.38,131.81,220.12,133.5,201.53z"/>
	<path class="st1" d="M118.11,253.64l-0.33,19.92c0,0-0.91,3.37-3.39,0.37c0,0-2.54-16.43-2.15-31.17s3.65-25.08,9.62-44.54
		c4.61-15.04,6.65-22.32,7.34-24.85c0.09-0.34,0.58-0.36,0.69-0.02C131.63,178.48,137.59,202.67,118.11,253.64z"/>
	<path class="st1" d="M126.33,168.47c0.05-0.23,0.39-0.18,0.38,0.05c-0.24,5.17-2.14,21.37-15.24,52.39c0,0-5.04,12.62-7.89,25.8
		c-0.06,0.27-0.45,0.22-0.44-0.05c0.18-7.46,1.69-31.8,13.56-53.14C116.68,193.51,122.84,183.85,126.33,168.47z"/>
	<path class="st1" d="M122.93,170.37c-2.45,3.65-8.29,11.93-13.64,16.2l-2.47,2.62c-0.9,0.95-1.1,2.37-0.51,3.54l4.15,9.04
		c0.33,0.65,1.29,0.49,1.39-0.22c0.35-2.42,0.77-7.3,1.55-9.29c0.99-2.54,7.41-16.51,9.81-21.72
		C123.29,170.34,123.04,170.21,122.93,170.37z"/>
	<path class="st1" d="M101.78,194.74c-0.13,3.86,0.26,14.82,2.98,23.14c0.21,0.64,1.16,0.52,1.22-0.15c0,0-0.36-4.51,0-5.95
		c0.19-0.74,0.95-2.12,1.62-3.24c0.62-1.04,0.59-2.34-0.08-3.35c-1.37-2.08-3.66-5.94-5.13-10.51
		C102.28,194.34,101.79,194.39,101.78,194.74z"/>
</g>
<g class="blank-color" data-name="right-belly">
	<path class="st1" d="M84.89,153.05c3.22,0.87,6.97,2.51,8.96,5.54l0.78,27.64c0,0-2.47,6.24-6.39,0.89
		c-2.86-3.91-6.39-20.86-8.08-29.67C79.64,154.69,82.18,152.31,84.89,153.05z"/>
	<path class="st1" d="M73.15,134.95c-0.11,4.82-0.65,20.22-0.22,30.89c0.02,0.42,0.16,0.81,0.42,1.14c0.44,0.57,1.31,1.49,2.85,2.49
		c1.3,0.84,3.02-0.14,2.93-1.69l-1.64-29.79c-0.05-0.85-0.46-1.64-1.14-2.17l-1.94-1.5C73.89,133.95,73.17,134.31,73.15,134.95z"/>
	<path class="st1" d="M79.31,149.04v-3.49c0-1.46,0.75-2.8,1.97-3.59c2.41-1.57,6.08-3.03,10.5-1.56c1.34,0.44,2,1.98,2,3.4v7.57
		c0,1.08-1.16,1.74-2.09,1.2c-1.76-1.02-4.86-1.97-10.08-1.42C80.39,151.26,79.31,150.28,79.31,149.04z"/>
	<path class="st1" d="M81.32,139.36c-0.45,0.3-1.06,0.14-1.23-0.37c-0.19-0.56-0.39-1.28-0.54-2.11c-0.35-1.91,0.21-3.86,1.53-5.28
		c1.95-2.09,5.73-4.64,10.86-4.94c1.15-0.07,2.13,0.86,2.17,2.01c0.08,2.04-0.06,5.19-0.54,8.41c-0.15,0.99-1.05,1.68-2.04,1.58
		C88.72,138.37,83.3,138.03,81.32,139.36z"/>
	<path class="st1" d="M79.44,129.29c0-0.96,0.02-2.66,0.17-4.29c0.17-1.78,0.97-3.44,2.29-4.65c1.99-1.82,5.54-4.15,10.52-3.96
		c1,0.04,1.76,0.9,1.74,1.89c-0.03,1.22-0.15,3.08-0.55,5.58c-0.12,0.73-0.72,1.29-1.46,1.33c-2.66,0.14-8.9,0.85-11.87,4.4
		C80,129.94,79.44,129.74,79.44,129.29z"/>
</g>
<g class="blank-color" data-name="left-belly">
	<path class="st1" d="M109.34,153.05c-3.22,0.87-6.97,2.51-8.96,5.54l-0.78,27.64c0,0,2.47,6.24,6.39,0.89
		c2.86-3.91,6.39-20.86,8.08-29.67C114.58,154.69,112.05,152.31,109.34,153.05z"/>
	<path class="st1" d="M121.08,134.95c0.11,4.82,0.65,20.22,0.22,30.89c-0.02,0.42-0.16,0.81-0.42,1.14
		c-0.44,0.57-1.31,1.49-2.85,2.49c-1.3,0.84-3.02-0.14-2.93-1.69l1.64-29.79c0.05-0.85,0.46-1.64,1.14-2.17l1.94-1.5
		C120.33,133.95,121.06,134.31,121.08,134.95z"/>
	<path class="st1" d="M114.91,149.04v-3.49c0-1.46-0.75-2.8-1.97-3.59c-2.41-1.57-6.08-3.03-10.5-1.56c-1.34,0.44-2,1.98-2,3.4v7.57
		c0,1.08,1.16,1.74,2.09,1.2c1.76-1.02,4.86-1.97,10.08-1.42C113.84,151.26,114.91,150.28,114.91,149.04z"/>
	<path class="st1" d="M112.91,139.36c0.45,0.3,1.06,0.14,1.23-0.37c0.19-0.56,0.39-1.28,0.54-2.11c0.35-1.91-0.21-3.86-1.53-5.28
		c-1.95-2.09-5.73-4.64-10.86-4.94c-1.15-0.07-2.13,0.86-2.17,2.01c-0.08,2.04,0.06,5.19,0.54,8.41c0.15,0.99,1.05,1.68,2.04,1.58
		C105.51,138.37,110.93,138.03,112.91,139.36z"/>
	<path class="st1" d="M114.78,129.29c0-0.96-0.02-2.66-0.17-4.29c-0.17-1.78-0.97-3.44-2.29-4.65c-1.99-1.82-5.54-4.15-10.52-3.96
		c-1,0.04-1.76,0.9-1.74,1.89c0.03,1.22,0.15,3.08,0.55,5.58c0.12,0.73,0.72,1.29,1.46,1.33c2.66,0.14,8.9,0.85,11.87,4.4
		C114.23,129.94,114.78,129.74,114.78,129.29z"/>
</g>
<g class="blank-color" data-name="right-ribs">
	<path class="st1" d="M72.93,125.65c0.6,1.03,1.84,2.79,3.55,3.42c0.46,0.17,0.78,0.6,0.78,1.09v3.04c0,0.37-0.4,0.62-0.72,0.43
		c-1.27-0.72-3.8-2.77-4.01-7.85C72.51,125.55,72.81,125.45,72.93,125.65z"/>
	<path class="st1" d="M73.69,121.74c0.64,0.26,1.78,0.83,3.13,1.94c0.28,0.23,0.44,0.59,0.44,0.95v2.71c0,0.35-0.43,0.52-0.66,0.25
		c-0.99-1.14-2.78-3.43-3.33-5.47C73.2,121.87,73.44,121.64,73.69,121.74z"/>
	<path class="st1" d="M74.17,117.1c0.69,0.24,2.02,0.69,3.15,1.44c0.43,0.28,0.65,0.79,0.6,1.3l-0.23,2.14
		c-0.03,0.3-0.38,0.46-0.63,0.28c-1.06-0.79-3.28-2.66-3.59-4.59C73.41,117.28,73.8,116.98,74.17,117.1z"/>
	<path class="st1" d="M73.77,112.46c1.01,0.21,2.82,0.72,5.31,1.97c0.29,0.14,0.41,0.5,0.28,0.79l-0.8,1.74
		c-0.15,0.33-0.53,0.47-0.86,0.31c-1.02-0.5-3.14-1.76-4.44-4.1C73.07,112.81,73.37,112.38,73.77,112.46z"/>
	<path class="st1" d="M68.56,109.83l3.62,4.71c0.56,0.73,0.84,1.64,0.78,2.55l-0.25,5.82c-0.03,0.39-0.58,0.45-0.68,0.07
		c-0.47-1.79-1.17-5.5-1.53-6.6c-0.43-1.35-1.63-4.5-2.33-6.34C68.09,109.8,68.4,109.63,68.56,109.83z"/>
</g>
<g class="blank-color" data-name="left-ribs">
	<path class="st1" d="M121.3,125.65c-0.6,1.03-1.84,2.79-3.55,3.42c-0.46,0.17-0.78,0.6-0.78,1.09v3.04c0,0.37,0.4,0.62,0.72,0.43
		c1.27-0.72,3.8-2.77,4.01-7.85C121.71,125.55,121.42,125.45,121.3,125.65z"/>
	<path class="st1" d="M120.54,121.74c-0.64,0.26-1.78,0.83-3.13,1.94c-0.28,0.23-0.44,0.59-0.44,0.95v2.71
		c0,0.35,0.43,0.52,0.66,0.25c0.99-1.14,2.78-3.43,3.33-5.47C121.03,121.87,120.78,121.64,120.54,121.74z"/>
	<path class="st1" d="M120.06,117.1c-0.69,0.24-2.02,0.69-3.15,1.44c-0.43,0.28-0.65,0.79-0.6,1.3l0.23,2.14
		c0.03,0.3,0.38,0.46,0.63,0.28c1.06-0.79,3.28-2.66,3.59-4.59C120.82,117.28,120.42,116.98,120.06,117.1z"/>
	<path class="st1" d="M120.45,112.46c-1.01,0.21-2.82,0.72-5.31,1.97c-0.29,0.14-0.41,0.5-0.28,0.79l0.8,1.74
		c0.15,0.33,0.53,0.47,0.86,0.31c1.02-0.5,3.14-1.76,4.44-4.1C121.16,112.81,120.86,112.38,120.45,112.46z"/>
	<path class="st1" d="M125.67,109.83l-3.62,4.71c-0.56,0.73-0.84,1.64-0.78,2.55l0.25,5.82c0.03,0.39,0.58,0.45,0.68,0.07
		c0.47-1.79,1.17-5.5,1.53-6.6c0.43-1.35,1.63-4.5,2.33-6.34C126.14,109.8,125.82,109.63,125.67,109.83z"/>
</g>
<g class="blank-color" data-name="right-chest">
	<path class="st1" d="M65.2,104.2c0.94-5.64,6.37-29.44,29.96-22.7l0.39,28.24c0,0-1.76,6.49-9.78,4.53
		c-6.65-1.62-16.53-6.67-19.71-8.35C65.42,105.59,65.08,104.9,65.2,104.2z"/>
</g>
<g class="blank-color" data-name="left-chest">
	<path class="st1" d="M129.03,104.2c-0.94-5.64-6.37-29.44-29.96-22.7l-0.39,28.24c0,0,1.76,6.49,9.78,4.53
		c6.65-1.62,16.53-6.67,19.71-8.35C128.8,105.59,129.15,104.9,129.03,104.2z"/>
</g>
<g class="section blank-color" data-name="right-front-shoulder">
	<path class="st1" d="M64.09,70.58c-3.65-0.36-15.1-0.05-12.81,18.85c0.05,0.42,0.63,0.49,0.77,0.09
		c1.25-3.67,4.9-12.56,12.26-18.15C64.63,71.13,64.49,70.62,64.09,70.58z"/>
	<path class="st1" d="M53.67,94.38c1.11-3.73,5.69-16.78,16.87-22.16c0.63-0.3,1.36,0.15,1.34,0.84
		c-0.12,5.18-1.71,22.55-17.41,22.37C53.91,95.43,53.51,94.91,53.67,94.38z"/>
	<path class="st1" d="M73.57,72.32c2.14-1.6,7.64-5.41,12.11-6.08c0.47-0.07,0.85,0.39,0.68,0.84c-0.47,1.23-1.78,3.54-5.34,6.17
		c-0.42,0.31-0.94,0.44-1.45,0.4l-5.76-0.51C73.39,73.09,73.24,72.57,73.57,72.32z"/>
</g>
<g class="section blank-color" data-name="left-front-shoulder">
	<path class="st1" d="M130.14,70.58c3.65-0.36,15.1-0.05,12.81,18.85c-0.05,0.42-0.63,0.49-0.77,0.09
		c-1.25-3.67-4.9-12.56-12.26-18.15C129.6,71.13,129.73,70.62,130.14,70.58z"/>
	<path class="st1" d="M140.56,94.38c-1.11-3.73-5.69-16.78-16.87-22.16c-0.63-0.3-1.36,0.15-1.34,0.84
		c0.12,5.18,1.71,22.55,17.41,22.37C140.31,95.43,140.72,94.91,140.56,94.38z"/>
	<path class="st1" d="M120.66,72.32c-2.14-1.6-7.64-5.41-12.11-6.08c-0.47-0.07-0.85,0.39-0.68,0.84c0.47,1.23,1.78,3.54,5.34,6.17
		c0.42,0.31,0.94,0.44,1.45,0.4l5.76-0.51C120.83,73.09,120.99,72.57,120.66,72.32z"/>
</g>
<g class="section blank-color" data-name="right-front-upper-arm">
	<path class="st1" d="M58.24,98.98c-4.43,1.04-10.56,4.92-10.73,18.41c-0.01,0.92-0.05,1.85-0.17,2.76l-0.63,5.07
		c-0.23,1.83,1.87,3.01,3.32,1.87c5.2-4.05,13.73-12.5,13.26-24.22C63.18,100.29,60.75,98.39,58.24,98.98z"/>
	<path class="st1" d="M62.58,115.64v2.17c0,1.29-0.36,2.55-1.06,3.64c-1.77,2.78-5.61,8.2-10.35,11.32
		c-0.53,0.35-1.13-0.35-0.71-0.83c2.67-3.05,8.49-9.85,11.7-16.4C62.26,115.33,62.58,115.4,62.58,115.64z"/>
</g>
<g class="section blank-color" data-name="left-front-upper-arm">
	<path class="st1" d="M136.09,98.97c4.3,1.01,10.24,4.77,10.4,17.85c0.01,0.89,0.05,1.79,0.16,2.68l0.61,4.91
		c0.22,1.77-1.81,2.91-3.22,1.82c-5.05-3.92-13.31-12.12-12.85-23.48C131.29,100.24,133.65,98.4,136.09,98.97z"/>
	<path class="st1" d="M131.65,115.64v2.17c0,1.29,0.36,2.55,1.06,3.64c1.77,2.78,5.61,8.2,10.35,11.32
		c0.53,0.35,1.13-0.35,0.71-0.83c-2.67-3.05-8.49-9.85-11.7-16.4C131.96,115.33,131.65,115.4,131.65,115.64z"/>
</g>
<g class="section blank-color" data-name="right-front-arm">
	<path class="st1" d="M46.82,130.31c-3.09,1.69-11.31,8.4-18.05,33.6l-6.77,14.13c-0.35,0.78,0.75,1.38,1.21,0.65
		c1.85-2.93,7.7-13.53,10-17c7.18-10.84,15.21-22.91,14.99-30.61C48.18,130.39,47.42,129.98,46.82,130.31z"/>
	<path class="st1" d="M42.44,150.1c1.54-2.82,4.91-8.28,9.89-12.48c0.39-0.33,1-0.06,1.02,0.45c0.08,1.47,0.21,4,0.33,6.13
		c0.07,1.25-0.7,1.83-1.83,2.36c0,0-2.02,0.77-2.74,1.11c-1.41,0.65-5.73,3.43-5.73,3.43C42.75,151.39,42.11,150.71,42.44,150.1z"/>
	<path class="st1" d="M46.88,152.56c0.17-0.27-0.12-0.59-0.4-0.45c-2,0.99-6.97,4.15-12.86,13.08c-4.78,7.24-7.45,11.49-8.79,13.67
		c-0.15,0.24,0.17,0.48,0.36,0.28C29.29,174.72,40.77,162.04,46.88,152.56z"/>
	<path class="st1" d="M50.35,149.3c0,0-8.74,15.72-24.65,30.65C25.7,179.95,47.52,162.31,50.35,149.3z"/>
</g>
<g class="section blank-color" data-name="left-front-arm">
	<path class="st1" d="M147.41,130.31c3.09,1.69,11.31,8.4,18.05,33.6l6.77,14.13c0.35,0.78-0.75,1.38-1.21,0.65
		c-1.85-2.93-7.7-13.53-10-17c-7.18-10.84-15.21-22.91-14.99-30.61C146.05,130.39,146.81,129.98,147.41,130.31z"/>
	<path class="st1" d="M151.79,150.1c-1.54-2.82-4.91-8.28-9.89-12.48c-0.39-0.33-1-0.06-1.02,0.45c-0.08,1.47-0.21,4-0.33,6.13
		c-0.07,1.25,0.7,1.83,1.83,2.36c0,0,2.02,0.77,2.74,1.11c1.41,0.65,5.73,3.43,5.73,3.43C151.47,151.39,152.12,150.71,151.79,150.1z
		"/>
	<path class="st1" d="M147.35,152.56c-0.17-0.27,0.12-0.59,0.4-0.45c2,0.99,6.97,4.15,12.86,13.08c4.78,7.24,7.45,11.49,8.79,13.67
		c0.15,0.24-0.17,0.48-0.36,0.28C164.94,174.72,153.46,162.04,147.35,152.56z"/>
	<path class="st1" d="M143.87,149.3c0,0,8.74,15.72,24.65,30.65C168.53,179.95,146.71,162.31,143.87,149.3z"/>
</g>
<g class="section blank-color" data-name="right-front-hand">
	<path class="st1" d="M17.59,183.4l-5.87,8.17c-1.05,1.46-0.77,3.47,0.62,4.6c1.48,1.2,3.33,2.91,4.78,4.96
		c0.65,0.91,2.01,0.93,2.67,0.03c2.19-2.95,5.78-9.23,4.25-17.05c0,0-1.39-1.78-4.52-1.76C18.75,182.36,18.04,182.78,17.59,183.4z"
		/>
	<path class="st1" d="M13.54,184c-1.23,1.02-5.85,4.7-10.95,7.14c-0.28,0.14-0.46,0.42-0.46,0.73v0.86c0,0.31,0.28,0.53,0.58,0.46
		c1.66-0.43,6.69-2.12,12.52-7.88c0.21-0.2,0.17-0.55-0.07-0.71l-0.94-0.63C14.01,183.83,13.74,183.84,13.54,184z"/>
	<path class="st1" d="M8.65,196.5l-5.2,12.19c-0.12,0.28-0.16,0.6-0.12,0.9l0.02,0.17c0.06,0.48,0.5,0.83,0.98,0.78l0.22-0.02
		c0.39-0.04,0.74-0.28,0.9-0.64c0.77-1.74,3.1-7.05,4.89-11.3c0.26-0.62,0.15-1.34-0.3-1.85l-0.35-0.39
		C9.39,196,8.83,196.08,8.65,196.5z"/>
	<path class="st1" d="M11.39,199.64L6.2,212.2c-0.36,0.87-0.45,1.83-0.26,2.76h0c0.09,0.42,0.5,0.69,0.93,0.6h0
		c0.44-0.1,0.81-0.4,0.99-0.82l5.62-12.81c0.23-0.53,0.12-1.15-0.29-1.57l-0.88-0.89C12.02,199.18,11.54,199.27,11.39,199.64z"/>
	<path class="st1" d="M14.33,202.12l-4.55,10.61c-0.19,0.44-0.22,0.92-0.08,1.38l0.08,0.27c0.1,0.35,0.42,0.59,0.79,0.59h0.04
		c0.49,0,0.94-0.29,1.14-0.74c0.61-1.39,2.06-4.78,4.26-10.44c0.11-0.27,0.06-0.59-0.13-0.81l-0.81-0.96
		C14.86,201.76,14.46,201.82,14.33,202.12z"/>
	<path class="st1" d="M18.3,204.17c-0.69,1.38-2.03,4.22-2.51,6.39c0,0-0.17,1.16,0.19,1.31c0.53,0.23,1.47-1.31,1.47-1.31
		l2.09-5.22c0.17-0.42,0.21-0.78,0.31-1.3c0,0,0.1-0.86-0.12-0.96C19.3,202.89,18.56,203.64,18.3,204.17z"/>
</g>
<g class="section blank-color" data-name="left-front-hand">
	<path class="st1" d="M176.64,183.4l5.87,8.17c1.05,1.46,0.77,3.47-0.62,4.6c-1.48,1.2-3.33,2.91-4.78,4.96
		c-0.65,0.91-2.01,0.93-2.67,0.03c-2.19-2.95-5.78-9.23-4.25-17.05c0,0,1.39-1.78,4.52-1.76
		C175.48,182.36,176.19,182.78,176.64,183.4z"/>
	<path class="st1" d="M180.68,184c1.23,1.02,5.85,4.7,10.95,7.14c0.28,0.14,0.46,0.42,0.46,0.73v0.86c0,0.31-0.28,0.53-0.58,0.46
		c-1.66-0.43-6.69-2.12-12.52-7.88c-0.21-0.2-0.17-0.55,0.07-0.71l0.94-0.63C180.22,183.83,180.49,183.84,180.68,184z"/>
	<path class="st1" d="M185.58,196.5l5.2,12.19c0.12,0.28,0.16,0.6,0.12,0.9l-0.02,0.17c-0.06,0.48-0.5,0.83-0.98,0.78l-0.22-0.02
		c-0.39-0.04-0.74-0.28-0.9-0.64c-0.77-1.74-3.1-7.05-4.89-11.3c-0.26-0.62-0.15-1.34,0.3-1.85l0.35-0.39
		C184.84,196,185.4,196.08,185.58,196.5z"/>
	<path class="st1" d="M182.84,199.64l5.19,12.55c0.36,0.87,0.45,1.83,0.26,2.76l0,0c-0.09,0.42-0.5,0.69-0.93,0.6h0
		c-0.44-0.1-0.81-0.4-0.99-0.82l-5.62-12.81c-0.23-0.53-0.12-1.15,0.29-1.57l0.88-0.89C182.2,199.18,182.69,199.27,182.84,199.64z"
		/>
	<path class="st1" d="M179.89,202.12l4.55,10.61c0.19,0.44,0.22,0.92,0.08,1.38l-0.08,0.27c-0.1,0.35-0.43,0.59-0.79,0.59h-0.04
		c-0.49,0-0.94-0.29-1.14-0.74c-0.61-1.39-2.06-4.78-4.26-10.44c-0.11-0.27-0.06-0.59,0.13-0.81l0.81-0.96
		C179.37,201.76,179.77,201.82,179.89,202.12z"/>
	<path class="st1" d="M175.93,204.17c0.69,1.38,2.03,4.22,2.51,6.39c0,0,0.17,1.16-0.19,1.31c-0.53,0.23-1.47-1.31-1.47-1.31
		l-2.09-5.22c-0.17-0.42-0.21-0.78-0.31-1.3c0,0-0.1-0.86,0.12-0.96C174.93,202.89,175.67,203.64,175.93,204.17z"/>
</g>
<g class="section blank-color" data-name="front-neck">
	<path class="st1" d="M87.68,71.88l-2.41,3.55c-0.24,0.35-0.09,0.82,0.3,0.97c0.85,0.33,2.35,0.72,4.07,0.24
		c0.36-0.1,0.56-0.5,0.4-0.85l-1.79-3.87C88.15,71.69,87.83,71.67,87.68,71.88z"/>
	<path class="st1" d="M88.21,59.78l0.14,4.83c0.02,0.56,0.15,1.11,0.39,1.61l6.57,13.64c0.21,0.45,0.88,0.3,0.89-0.19l0.09-4.28
		c0.02-1.14-0.24-2.27-0.77-3.27L88.94,59.6C88.75,59.24,88.21,59.38,88.21,59.78z"/>
	<path class="st1" d="M106.54,71.88l2.41,3.55c0.24,0.35,0.09,0.82-0.3,0.97c-0.85,0.33-2.35,0.72-4.07,0.24
		c-0.36-0.1-0.56-0.5-0.4-0.85l1.79-3.87C106.07,71.69,106.4,71.67,106.54,71.88z"/>
	<path class="st1" d="M106.02,59.78l-0.14,4.83c-0.02,0.56-0.15,1.11-0.39,1.61l-6.57,13.64c-0.21,0.45-0.88,0.3-0.89-0.19
		l-0.09-4.28c-0.02-1.14,0.24-2.27,0.77-3.27l6.58-12.51C105.47,59.24,106.02,59.38,106.02,59.78z"/>
</g>
</svg>
