<?xml version="1.0" encoding="utf-8"?>
<!-- Generator: Adobe Illustrator 23.1.0, SVG Export Plug-In . SVG Version: 6.00 Build 0)  -->
<svg version="1.1" id="Layer_1" xmlns="http://www.w3.org/2000/svg" xmlns:xlink="http://www.w3.org/1999/xlink" x="0px" y="0px"
	 viewBox="0 0 194.05 419.45" style="enable-background:new 0 0 194.05 419.45;" xml:space="preserve">
<style type="text/css">
	.st1{stroke:#FFCC80;stroke-width:0.025;stroke-miterlimit:10;}
</style>
<g>
	<path class="st0" d="M193.68,194.19c-0.28,0.25-0.67,0.33-1.05,0.37c-2.77,0.34-4.94-0.73-7.02-2.41
		c2.28,4.62,4.09,9.46,5.38,14.44c0.35,1.35,0.67,2.71,0.7,4.1c0.02,0.57-0.02,1.16-0.27,1.67c-0.26,0.5-0.78,0.91-1.35,0.89
		c-0.5-0.03-0.87-0.36-1.19-0.71c-0.33-0.35-0.47-1-0.84-1.24c0.39,1.39,0.82,2.72,1.01,4.16c0.1,0.73,0.1,1.61-0.5,2.05
		c-0.58,0.42-1.42,0.17-1.96-0.3c-0.54-0.47-0.89-1.12-1.37-1.64c0,0.41,0.12,0.81,0.14,1.22c0.02,0.41-0.08,0.86-0.4,1.11
		c-0.53,0.39-1.29,0.03-1.8-0.39c-2.05-1.71-3.08-4.33-4.04-6.83c-0.58-1.54-1.16-3.07-1.74-4.6c0.83,2.29,1.49,4.65,1.97,7.04
		c0.08,0.43,0.14,0.95-0.19,1.25c-0.24,0.23-0.63,0.23-0.94,0.09c-0.3-0.13-0.54-0.38-0.76-0.64c-2.83-3.22-4.48-7.29-5.93-11.27
		c-0.72-1.98-1.35-3.92-1.85-5.95c-0.54-2.23-0.89-4.49-1.44-6.71c-0.41-1.67-0.94-3.32-1.73-4.85c-0.8-1.54-1.84-2.92-2.88-4.3
		c-1.14-1.51-2.11-3.05-3.33-4.47c-4.64-5.4-8.85-11.1-13.36-16.59c-0.8-0.97-1.6-1.95-2.35-2.97c-2.24-3.07-3.92-6.42-4.91-10.08
		c-0.6-2.21-1.14-4.44-1.63-6.68c-0.21-0.94-0.26-1.93-0.48-2.85c-0.24-1.02-0.97-2.02-1.48-2.93c-2.69-4.7-4.88-10.06-5.83-15.41
		c-0.25-1.44-0.4-2.9-0.54-4.35c-0.24-2.44-0.39-4.88-0.66-7.33c-0.2,2.53-1.12,4.94-2.41,7.11c-0.63,1.07-1.35,2.23-2.21,3.13
		c-1.64,1.71-1.24,4.9-1.37,7.11c-0.19,2.98-0.25,5.97-0.31,8.96c-0.09,3.94-0.17,7.89-0.26,11.83c-0.08,3.68-0.75,7.62,0.95,11
		c2.81,5.59,6.62,11.06,8.61,16.98c2.09,6.23,4.02,12.56,4.77,19.11c1.47,12.85,0.6,26.23-1.5,38.97
		c-1.86,9.34-3.89,18.65-6.11,27.92c-0.92,3.87-1.89,7.73-2.96,11.56c-0.5,1.8-0.88,3.69-1.47,5.44c-0.97,2.86-2.13,5.56-2.35,8.63
		c-0.14,2.07,0.11,4.17-0.19,6.22c-0.71,4.69-0.79,8.74,0.32,13.44c1.91,8.09,4.14,16.11,4.32,24.48c0.15,6.45-0.7,12.93-2.51,19.13
		c-1.83,6.25-4.11,12.36-5.92,18.64c-1.01,3.52-1.78,7.08-2.47,10.68c-0.79,4.16-0.65,8.2-0.61,12.41c0,0.25,0.01,0.51,0.11,0.74
		c0.12,0.26,0.36,0.45,0.58,0.64c0.39,0.34,0.75,0.74,1,1.21c1.3,2.39-0.49,5.4,0.15,8.05c0.48,2.02,2.27,3.45,3.16,5.32
		c0.57,1.21,0.75,2.57,1.31,3.79c0.71,1.52,1.99,2.72,3.38,3.68c0.76,0.53,1.58,1.03,2.09,1.81c0.32,0.5,1.18,3.43,0.57,3.7
		c-1.62,0.72-3.46,0.7-5.24,0.67c-3.45,0-6.9-0.12-10.35-0.18c-2.48-0.04-4.93-0.05-7.37-0.49c-0.33-0.07-0.68-0.14-0.92-0.38
		c-0.22-0.22-0.31-0.55-0.38-0.85c-0.8-3.55-0.82-7.27-0.06-10.82c0.51-2.4,1.46-4.84,1.62-7.29c0.14-2.25-0.93-4.54-0.19-6.76
		c0.33-1,0.92-1.74,1.05-2.81c0.47-3.92-0.28-8.18-0.61-12.09c-0.45-5.51-0.62-11.06-1.39-16.54c-0.51-3.59-1.1-7.23-2.06-10.71
		c-1.4-5.1-2.09-9.9-1.64-15.17c0.42-4.92,0.87-9.8,1.63-14.69c1.06-6.73,1.99-13.49,2.25-20.3c0.52-13.46-1.48-27.02-3.35-40.31
		c-0.91-6.47-1.15-12.89-1.27-19.37c-0.19-10.18-0.1-20.28,0.64-30.42c0.07-0.97,0.08-1.92,0.23-2.89h-6.59
		c0.15,0.97,0.16,1.92,0.23,2.89c0.74,10.14,0.83,20.24,0.65,30.42c-0.12,6.48-0.36,12.9-1.27,19.37
		c-1.88,13.29-3.87,26.85-3.36,40.31c0.26,6.81,1.19,13.57,2.25,20.3c0.77,4.89,1.22,9.77,1.63,14.69
		c0.45,5.27-0.23,10.07-1.63,15.17c-0.96,3.48-1.55,7.12-2.06,10.71c-0.78,5.48-0.94,11.03-1.4,16.54
		c-0.32,3.91-1.08,8.17-0.6,12.09c0.13,1.07,0.71,1.81,1.04,2.81c0.74,2.22-0.33,4.51-0.18,6.76c0.16,2.45,1.11,4.89,1.62,7.29
		c0.75,3.55,0.73,7.27-0.07,10.82c-0.07,0.3-0.15,0.63-0.37,0.85c-0.24,0.24-0.59,0.31-0.93,0.38c-2.44,0.44-4.89,0.45-7.36,0.49
		c-3.45,0.06-6.91,0.18-10.36,0.18c-1.77,0.03-3.61,0.05-5.24-0.67c-0.6-0.27,0.25-3.2,0.58-3.7c0.51-0.78,1.33-1.28,2.09-1.81
		c1.38-0.96,2.66-2.16,3.37-3.68c0.57-1.22,0.75-2.58,1.32-3.79c0.88-1.87,2.67-3.3,3.16-5.32c0.63-2.65-1.15-5.66,0.15-8.05
		c0.25-0.47,0.6-0.87,1-1.21c0.21-0.19,0.45-0.38,0.57-0.64c0.11-0.23,0.11-0.49,0.12-0.74c0.04-4.21,0.18-8.25-0.62-12.41
		c-0.68-3.6-1.46-7.16-2.47-10.68c-1.8-6.28-4.09-12.39-5.91-18.64c-1.81-6.2-2.66-12.68-2.52-19.13
		c0.19-8.37,2.42-16.39,4.33-24.48c1.11-4.7,1.02-8.75,0.32-13.44c-0.31-2.05-0.05-4.15-0.2-6.22c-0.21-3.07-1.38-5.77-2.35-8.63
		c-0.59-1.75-0.96-3.64-1.47-5.44c-1.07-3.83-2.03-7.69-2.96-11.56c-2.22-9.27-4.24-18.58-6.11-27.92
		c-2.09-12.74-2.96-26.12-1.49-38.97c0.75-6.55,2.67-12.88,4.77-19.11c1.99-5.92,5.79-11.39,8.61-16.98c1.7-3.38,1.02-7.32,0.94-11
		c-0.08-3.94-0.17-7.89-0.25-11.83c-0.06-2.99-0.13-5.98-0.31-8.96c-0.14-2.21,0.26-5.4-1.37-7.11c-0.87-0.9-1.58-2.06-2.22-3.13
		c-1.28-2.17-2.2-4.58-2.41-7.11c-0.26,2.45-0.42,4.89-0.66,7.33c-0.14,1.45-0.28,2.91-0.54,4.35c-0.94,5.35-3.14,10.71-5.82,15.41
		c-0.52,0.91-1.24,1.91-1.49,2.93c-0.22,0.92-0.27,1.91-0.47,2.85c-0.49,2.24-1.04,4.47-1.63,6.68c-0.99,3.66-2.67,7.01-4.91,10.08
		c-0.75,1.02-1.55,2-2.35,2.97c-4.52,5.49-8.73,11.19-13.36,16.59c-1.22,1.42-2.2,2.96-3.33,4.47c-1.04,1.38-2.09,2.76-2.88,4.3
		c-0.79,1.53-1.32,3.18-1.74,4.85c-0.55,2.22-0.89,4.48-1.44,6.71c-0.5,2.03-1.13,3.97-1.85,5.95c-1.44,3.98-3.09,8.05-5.92,11.27
		c-0.22,0.26-0.46,0.51-0.77,0.64c-0.3,0.14-0.69,0.14-0.94-0.09c-0.32-0.3-0.27-0.82-0.18-1.25c0.48-2.39,1.14-4.75,1.97-7.04
		c-0.58,1.53-1.17,3.06-1.75,4.6c-0.95,2.5-1.98,5.12-4.04,6.83c-0.51,0.42-1.26,0.78-1.79,0.39c-0.33-0.25-0.43-0.7-0.41-1.11
		c0.03-0.41,0.14-0.81,0.15-1.22c-0.49,0.52-0.84,1.17-1.37,1.64c-0.54,0.47-1.38,0.72-1.96,0.3c-0.6-0.44-0.6-1.32-0.5-2.05
		c0.19-1.44,0.61-2.77,1.01-4.16c-0.38,0.24-0.52,0.89-0.84,1.24c-0.33,0.35-0.69,0.68-1.2,0.71c-0.56,0.02-1.09-0.39-1.34-0.89
		c-0.26-0.51-0.29-1.1-0.28-1.67c0.04-1.39,0.35-2.75,0.7-4.1c1.3-4.98,3.1-9.82,5.39-14.44c-2.08,1.68-4.25,2.75-7.03,2.41
		c-0.37-0.04-0.77-0.12-1.05-0.37c-0.48-0.43-0.46-1.23-0.12-1.78c0.34-0.55,0.91-0.91,1.47-1.24c3.1-1.85,6.36-3.49,9.05-5.89
		c1.04-0.93,2.02-1.98,3.31-2.51c1.15-0.47,2.25-0.67,3.19-1.55c0.98-0.93,1.8-2.1,2.54-3.21c1.54-2.3,2.74-4.8,3.86-7.33
		c0.38-0.85,0.76-1.71,1.12-2.57c2.48-5.89,4.27-12.02,6.85-17.84c2.5-5.64,5.88-10.86,9.76-15.64c0.49-0.6,1.06-1.16,1.53-1.78
		c0.54-0.69,0.47-0.79,0.36-1.72c-0.21-1.59-0.31-3.2-0.31-4.81c0-3.09,0.36-6.17,0.97-9.2c0.51-2.49,1.2-4.94,2.01-7.35
		c0.8-2.4,2.05-4.71,2.76-7.12c0.66-2.22-0.01-5.41-0.1-7.75c-0.09-2.64-0.19-5.27-0.29-7.91c-0.08-2.24-0.17-4.5,0.16-6.71
		c0.78-5.18,4.32-10.23,9.43-11.34c1.52-0.33,3.08-0.3,4.63-0.33c3.75-0.07,7.5-0.47,11.17-1.19c4.15-0.81,8.47-2.2,11.12-5.48
		c3.14-3.89,2.76-9.2,2.39-14.2c-0.2-2.62-0.55-5.42-0.88-8.03h20.85c-0.31,2.61-0.57,5.24-0.76,7.86
		c-0.37,4.99-0.37,10.47,2.77,14.36c2.66,3.28,6.98,4.67,11.12,5.48c3.68,0.72,7.42,1.12,11.17,1.19c1.55,0.03,3.12,0,4.64,0.33
		c5.11,1.11,8.65,6.16,9.42,11.34c0.33,2.21,0.25,4.47,0.17,6.71c-0.1,2.64-0.2,5.27-0.3,7.91c-0.09,2.34-0.76,5.53-0.1,7.75
		c0.71,2.41,1.96,4.72,2.77,7.12c0.81,2.41,1.49,4.86,2,7.35c0.62,3.03,0.97,6.11,0.97,9.2c0,1.61-0.09,3.22-0.3,4.81
		c-0.12,0.93-0.19,1.03,0.35,1.72c0.48,0.62,1.04,1.18,1.54,1.78c3.87,4.78,7.26,10,9.76,15.64c2.58,5.82,4.36,11.95,6.85,17.84
		c0.36,0.86,0.73,1.72,1.11,2.57c1.12,2.53,2.33,5.03,3.86,7.33c0.75,1.11,1.57,2.28,2.54,3.21c0.94,0.88,2.04,1.08,3.2,1.55
		c1.29,0.53,2.27,1.58,3.31,2.51c2.69,2.4,5.95,4.04,9.05,5.89c0.55,0.33,1.12,0.69,1.46,1.24
		C194.14,192.96,194.17,193.76,193.68,194.19z"/>
</g>
<path class="st1 blank-color" d="M96.91,0.01c25.3,0,19.89,30.98,19.89,30.98c2.48,0.65,2.48,0.91,0.78,6.65c-1.7,5.74-2.74,3.72-2.74,3.72
	c-1.04,6.85-8.41,12.85-8.41,12.85c-1.63-11.28-9.52-10.7-9.52-10.7s-7.89-0.59-9.52,10.7c0,0-7.37-6-8.41-12.85
	c0,0-1.04,2.02-2.74-3.72c-1.7-5.74-1.7-6,0.78-6.65C77.02,30.99,71.61,0.01,96.91,0.01z"/>
<g class="section blank-color" data-name="left-back-foot">
	<path class="st1" d="M78.71,399.54c-1.49,3.36-4.8,11.35-4.86,16.36c-0.01,0.89,0.61,1.66,1.48,1.84
		c2.22,0.47,6.81,1.15,11.57,0.09c1-0.22,1.75-1.05,1.86-2.07c0.28-2.61,0.42-8.21-1.92-16.05c-0.1-0.34-0.6-0.29-0.62,0.06
		c-0.18,3.34-0.82,10.48-3.01,14.23c-0.73,1.26-2.56,1.22-3.29-0.04c-1.03-1.77-1.81-5.69-0.71-14.28
		C79.23,399.39,78.83,399.27,78.71,399.54z"/>
</g>
<g class="section blank-color" data-name="right-back-foot">
	<path class="st1" d="M115.11,399.54c1.49,3.36,4.8,11.35,4.86,16.36c0.01,0.89-0.61,1.66-1.48,1.84
		c-2.22,0.47-6.81,1.15-11.57,0.09c-1-0.22-1.75-1.05-1.86-2.07c-0.28-2.61-0.42-8.21,1.92-16.05c0.1-0.34,0.6-0.29,0.62,0.06
		c0.18,3.34,0.82,10.48,3.01,14.23c0.73,1.26,2.56,1.22,3.29-0.04c1.03-1.77,1.81-5.69,0.71-14.28
		C114.59,399.39,114.99,399.27,115.11,399.54z"/>
</g>
<g class="section blank-color" data-name="left-back-leg">
	<path class="st1" d="M74.78,351.84c-0.34-0.58-1.2-0.42-1.31,0.24c-0.25,1.46-0.43,3.68,0.1,5.98c0.91,3.98,6.26,11.48,6.85,26.67
		c0,0,0.59,6.95,0.52,11.84c0,0,0.1,2.28,1.37,2.02c0.94-0.19,0.32-5.4,0.12-6.81c-0.09-0.65-0.14-1.29-0.16-1.94
		c-0.15-4.41-1.85-17.85-3.02-25.52C78.32,358.38,76,353.94,74.78,351.84z"/>
	<path class="st1" d="M87.94,350.4c-0.78,1.98-1.96,6.8-1.46,17.31c0,0-3.63,27.77-0.62,28.63c1.2,0.34,1.53-18.13,1.53-18.13
		s-0.2-6.2,1.89-17.02c0,0,0.58-6.48-0.36-10.71C88.81,349.98,88.12,349.93,87.94,350.4z"/>
	<path class="st1" d="M78.01,285.93l0.6,0.76c0.44,0.55,0.66,1.24,0.62,1.95c-0.34,5.52-1.72,30.85,0.07,46.59
		c0,0,1.14,9.98-0.03,16.18c-0.2,1.09-1.59,1.43-2.28,0.56c-2.58-3.24-7.41-10.05-7.79-15.96c-0.44-6.88,4.93-39.55,6.36-49.16
		C75.73,285.68,77.11,285.17,78.01,285.93z"/>
	<path class="st1" d="M80.69,290.29c-0.27,3.88-0.65,12.98,0.62,24.81c0.2,1.85,0.33,3.7,0.44,5.55c0.27,4.74,0.74,13.26,0.97,18.44
		c0.07,1.55,0.64,3.02,1.62,4.22l3.95,4.82c0.78,0.95,2.32,0.49,2.44-0.73c0.37-3.75,0.84-10.38,0.62-17.99
		c-0.2-6.71-1.42-13.36-3.5-19.74L81.5,290.2C81.36,289.76,80.72,289.83,80.69,290.29z"/>
</g>
<g class="section blank-color" data-name="right-back-leg">
	<path class="st1" d="M119.04,351.84c0.34-0.58,1.2-0.42,1.31,0.24c0.25,1.46,0.43,3.68-0.1,5.98c-0.91,3.98-6.26,11.48-6.85,26.67
		c0,0-0.59,6.95-0.52,11.84c0,0-0.1,2.28-1.37,2.02c-0.94-0.19-0.32-5.4-0.12-6.81c0.09-0.65,0.14-1.29,0.16-1.94
		c0.15-4.41,1.85-17.85,3.02-25.52C115.5,358.38,117.82,353.94,119.04,351.84z"/>
	<path class="st1" d="M105.88,350.4c0.78,1.98,1.96,6.8,1.46,17.31c0,0,3.63,27.77,0.62,28.63c-1.2,0.34-1.53-18.13-1.53-18.13
		s0.2-6.2-1.89-17.02c0,0-0.58-6.48,0.36-10.71C105.01,349.98,105.7,349.93,105.88,350.4z"/>
	<path class="st1" d="M115.81,285.93l-0.6,0.76c-0.44,0.55-0.66,1.24-0.62,1.95c0.34,5.52,1.72,30.85-0.07,46.59
		c0,0-1.14,9.98,0.03,16.18c0.2,1.09,1.59,1.43,2.28,0.56c2.58-3.24,7.41-10.05,7.79-15.96c0.44-6.88-4.93-39.55-6.36-49.16
		C118.09,285.68,116.71,285.17,115.81,285.93z"/>
	<path class="st1" d="M113.13,290.29c0.27,3.88,0.65,12.98-0.62,24.81c-0.2,1.85-0.33,3.7-0.44,5.55
		c-0.27,4.74-0.74,13.26-0.97,18.44c-0.07,1.55-0.64,3.02-1.62,4.22l-3.95,4.82c-0.78,0.95-2.32,0.49-2.44-0.73
		c-0.37-3.75-0.84-10.38-0.62-17.99c0.2-6.71,1.42-13.36,3.5-19.74l6.34-19.47C112.46,289.76,113.1,289.83,113.13,290.29z"/>
</g>
<g class="section blank-color" data-name="left-back-lap">
	<path class="st1" d="M85.37,250.94c-0.1,2.63-0.25,6.97-0.69,12.26c-0.28,3.34-0.57,8.58-0.64,11.93
		c-0.11,5.92,0.48,14.21,0.98,19.37c0.12,1.27,1.45-0.06,1.86-1.27c1.11-3.29,1.41-11.83,0.36-24.02
		c-0.91-10.54-1.36-15.73-1.58-18.28C85.64,250.76,85.38,250.76,85.37,250.94z"/>
	<path class="st1" d="M79.27,220.5c-0.05-0.14-0.26-0.12-0.27,0.03c-0.07,0.89-0.38,2.79-1.47,5.39
		c-2.19,5.24-11.07,36.92,4.87,61.98c0.2,0.32,0.71,0.15,0.67-0.23c-0.21-2.23-0.75-8.17,0.42-17.81c0.37-3.03,0.52-6.08,0.5-9.14
		C83.95,250.37,83.25,232.47,79.27,220.5z"/>
	<path class="st1" d="M75.64,225.62c0.42-0.87-0.5-1.76-1.36-1.31c-3.79,1.97-10.34,7.37-9.36,20.89
		c1.11,15.34,4.71,26.4,6.02,30.01c0.33,0.9,0.53,1.84,0.62,2.79c0.22,2.43,0.69,7.24,1.16,10.56c0.06,0.45,0.72,0.43,0.75-0.02
		l0.34-11.45c0.12-2.09-0.09-4.18-0.67-6.19C71.1,263.73,66.79,243.78,75.64,225.62z"/>
	<path class="st1" d="M58.54,216.3c0.22,3.97,1.05,14.1,3.35,25.68c0.13,0.63,1.01,0.67,1.19,0.05c0.62-2.21,1.51-5.85,2.01-10.19
		c0.27-2.3-0.17-4.63-1.22-6.7l-4.59-9.05C59.09,215.72,58.52,215.88,58.54,216.3z"/>
	<path class="st1" d="M91.28,212.25c-1.54,0.98-4.4,2.87-6.87,4.89c-1.36,1.11-2.1,2.8-2.04,4.56c0.15,4.19,1.16,12.18,3.58,20.78
		c3.42,12.13,2.83,25.9,2.83,25.9s-0.08-12.37,3.07-23.3c0.87-3.02,1.39-6.12,1.61-9.26c0.43-6.05,0.72-15.49-0.78-22.99
		C92.56,212.2,91.83,211.9,91.28,212.25z"/>
</g>
<g class="section blank-color" data-name="right-back-lap">
	<path class="st1" d="M108.45,250.94c0.1,2.63,0.25,6.97,0.69,12.26c0.28,3.34,0.57,8.58,0.64,11.93
		c0.11,5.92-0.48,14.21-0.98,19.37c-0.12,1.27-1.45-0.06-1.86-1.27c-1.11-3.29-1.41-11.83-0.36-24.02
		c0.91-10.54,1.36-15.73,1.58-18.28C108.18,250.76,108.44,250.76,108.45,250.94z"/>
	<path class="st1" d="M114.55,220.5c0.05-0.14,0.26-0.12,0.27,0.03c0.07,0.89,0.38,2.79,1.47,5.39c2.19,5.24,11.07,36.92-4.87,61.98
		c-0.2,0.32-0.71,0.15-0.67-0.23c0.21-2.23,0.75-8.17-0.42-17.81c-0.37-3.03-0.52-6.08-0.5-9.14
		C109.87,250.37,110.57,232.47,114.55,220.5z"/>
	<path class="st1" d="M118.18,225.62c-0.42-0.87,0.5-1.76,1.36-1.31c3.79,1.97,10.34,7.37,9.36,20.89
		c-1.11,15.34-4.71,26.4-6.02,30.01c-0.33,0.9-0.53,1.84-0.62,2.79c-0.22,2.43-0.69,7.24-1.16,10.56c-0.06,0.45-0.72,0.43-0.75-0.02
		l-0.34-11.45c-0.12-2.09,0.09-4.18,0.67-6.19C122.72,263.73,127.03,243.78,118.18,225.62z"/>
	<path class="st1" d="M135.28,216.3c-0.22,3.97-1.05,14.1-3.35,25.68c-0.13,0.63-1.01,0.67-1.19,0.05
		c-0.62-2.21-1.51-5.85-2.01-10.19c-0.27-2.3,0.17-4.63,1.22-6.7l4.59-9.05C134.73,215.72,135.3,215.88,135.28,216.3z"/>
	<path class="st1" d="M102.54,212.25c1.54,0.98,4.4,2.87,6.87,4.89c1.36,1.11,2.1,2.8,2.04,4.56c-0.15,4.19-1.16,12.18-3.58,20.78
		c-3.42,12.13-2.83,25.9-2.83,25.9s0.08-12.37-3.07-23.3c-0.87-3.02-1.39-6.12-1.61-9.26c-0.43-6.05-0.72-15.49,0.78-22.99
		C101.26,212.2,101.99,211.9,102.54,212.25z"/>
</g>
<g class="blank-color" data-name="left-back-ass">
	<path class="st1" d="M66.36,224.82c-2.17-2.52-6.06-8.43-7.09-19.34c-0.55-5.84,1.54-11.62,5.72-15.73
		c5.03-4.94,13.75-10.77,28-12.92c0.79-0.12,1.52,0.47,1.57,1.27c0.2,3.37,0.24,11.66-0.11,22.64c-0.16,4.82-2.91,9.2-7.2,11.4
		c-2.75,1.41-5.81,3.36-9.51,4.3c-6.35,1.6-8.64,5.63-9.45,8.02C68.01,225.29,66.94,225.49,66.36,224.82z"/>
	<path class="st1" d="M59.86,189.99c0.38-3.92,1.91-12.71,8.06-20.55c1.48-1.88,4.01-2.64,6.25-1.81c2.61,0.96,6.26,2.96,10.05,7.11
		c0.47,0.52,0.24,1.36-0.45,1.53c-4.58,1.13-18.48,5.21-23.21,13.94C60.38,190.58,59.82,190.41,59.86,189.99z"/>
</g>
<g class="blank-color" data-name="right-back-ass">
	<path class="st1" d="M127.46,224.82c2.17-2.52,6.06-8.43,7.09-19.34c0.55-5.84-1.54-11.62-5.72-15.73
		c-5.03-4.94-13.75-10.77-28-12.92c-0.79-0.12-1.52,0.47-1.57,1.27c-0.2,3.37-0.24,11.66,0.11,22.64c0.16,4.82,2.91,9.2,7.2,11.4
		c2.75,1.41,5.81,3.36,9.51,4.3c6.35,1.6,8.64,5.63,9.45,8.02C125.81,225.29,126.88,225.49,127.46,224.82z"/>
	<path class="st1" d="M133.96,189.99c-0.38-3.92-1.91-12.71-8.06-20.55c-1.48-1.88-4.01-2.64-6.25-1.81
		c-2.61,0.96-6.26,2.96-10.05,7.11c-0.47,0.52-0.24,1.36,0.45,1.53c4.58,1.13,18.48,5.21,23.21,13.94
		C133.44,190.58,134,190.41,133.96,189.99z"/>
</g>
<g class="section blank-color" data-name="left-back-waist">
	<path class="st1" d="M74.77,150.9c-0.27-0.43-0.93-0.29-1.04,0.2c-0.34,1.53-0.86,4.31-0.94,7.39c-0.08,2.83-0.4,5.15-0.64,6.52
		c-0.11,0.61,0.52,1.07,1.07,0.79c0.85-0.42,2.01-1.11,3.22-2.15c0.92-0.79,1.4-1.98,1.24-3.18
		C77.35,158.06,76.56,153.73,74.77,150.9z"/>
	<path class="st1" d="M79.28,154.97c-0.31-0.44-0.05-1.02,0.46-1.16c1.05-0.27,2.75-1.16,5.1-3.8c2.93-3.3,6.18-7.52,7.86-9.75
		c0.41-0.55,1.28-0.3,1.34,0.38c0.41,4.45,1.2,16.24-0.1,30.57c-0.03,0.38-0.5,0.55-0.77,0.28
		C91.02,169.25,84.22,162.02,79.28,154.97z"/>
</g>
<g class="section blank-color" data-name="right-back-waist">
	<path class="st1" d="M119.05,150.9c0.27-0.43,0.93-0.29,1.04,0.2c0.34,1.53,0.86,4.31,0.94,7.39c0.08,2.83,0.4,5.15,0.64,6.52
		c0.11,0.61-0.52,1.07-1.07,0.79c-0.85-0.42-2.01-1.11-3.22-2.15c-0.92-0.79-1.4-1.98-1.24-3.18
		C116.47,158.06,117.26,153.73,119.05,150.9z"/>
	<path class="st1" d="M114.54,154.97c0.31-0.44,0.05-1.02-0.46-1.16c-1.05-0.27-2.75-1.16-5.1-3.8c-2.93-3.3-6.18-7.52-7.86-9.75
		c-0.41-0.55-1.28-0.3-1.34,0.38c-0.41,4.45-1.2,16.24,0.1,30.57c0.03,0.38,0.5,0.55,0.77,0.28
		C102.8,169.25,109.6,162.02,114.54,154.97z"/>
</g>
<g class="blank-color" data-name="left-back">
	<path class="st1" d="M69.01,101.21c2.3,0.66,6.12,1.4,8.55-0.04c0.98-0.58,2.23-0.44,2.98,0.43c2.35,2.71,7.07,7.89,11.94,11.63
		c2.02,1.55,3.27,3.88,3.53,6.41c0.01,0.05,0.01,0.1,0.02,0.15c0.53,5.35-0.88,10.7-3.98,15.1c-2.47,3.5-6.26,8-11.84,12.7
		c-1.01,0.85-2.55,0.17-2.62-1.15c-0.38-7.65-2.09-27.67-9.61-43.99C67.66,101.76,68.28,101,69.01,101.21z"/>
</g>
<g class="blank-color" data-name="right-back">
	<path class="st1" d="M124.81,101.21c-2.3,0.66-6.12,1.4-8.55-0.04c-0.98-0.58-2.23-0.44-2.98,0.43
		c-2.35,2.71-7.07,7.89-11.94,11.63c-2.02,1.55-3.27,3.88-3.53,6.41c-0.01,0.05-0.01,0.1-0.02,0.15c-0.53,5.35,0.88,10.7,3.98,15.1
		c2.47,3.5,6.26,8,11.84,12.7c1.01,0.85,2.55,0.17,2.62-1.15c0.38-7.65,2.09-27.67,9.61-43.99
		C126.16,101.76,125.54,101,124.81,101.21z"/>
</g>
<g class="section blank-color" data-name="left-back-shoulder">
	<path class="st1" d="M72,80.26c-1.94,1.89-7.35,7.45-10.12,13.52c-0.28,0.62,0.05,1.35,0.71,1.53c2.5,0.65,8.62,2.07,16.26,2.47
		c0.66,0.03,1.16-0.58,1-1.22c-0.8-3.11-3.1-11.17-6.54-16.19C72.99,79.94,72.37,79.89,72,80.26z"/>
	<path class="st1" d="M53.51,94.67c-0.36,0.34-0.95,0.21-1.15-0.25c-1.06-2.44-3.45-9.4,0.43-15.34c4.43-6.79,11.46-6.21,16.29-3.99
		c0.59,0.27,0.77,1.03,0.37,1.54C67.09,79.65,59.67,88.95,53.51,94.67z"/>
	<path class="st1" d="M65.86,70.67c5.48-0.59,17.6-1.12,26.16,4.25c1.96,1.23,3.14,3.39,3.3,5.7c0.15,2.29,0.27,5.79,0.12,10.7
		c-0.22,7.72-0.1,12.66,0.06,15.96c0.05,0.98-1.07,1.56-1.85,0.96c-3.55-2.72-11.1-9.05-15.63-22.79
		c-3.85-9.73-7.91-13.05-12.21-14.03C65.39,71.32,65.43,70.72,65.86,70.67z"/>
</g>
<g class="section blank-color" data-name="right-back-shoulder">
	<path class="st1" d="M121.82,80.26c1.94,1.89,7.35,7.45,10.12,13.52c0.28,0.62-0.05,1.35-0.71,1.53c-2.5,0.65-8.62,2.07-16.26,2.47
		c-0.66,0.03-1.16-0.58-1-1.22c0.8-3.11,3.1-11.17,6.54-16.19C120.83,79.94,121.45,79.89,121.82,80.26z"/>
	<path class="st1" d="M140.31,94.67c0.36,0.34,0.95,0.21,1.15-0.25c1.06-2.44,3.45-9.4-0.43-15.34c-4.43-6.79-11.46-6.21-16.29-3.99
		c-0.59,0.27-0.77,1.03-0.37,1.54C126.73,79.65,134.15,88.95,140.31,94.67z"/>
	<path class="st1" d="M127.96,70.67c-5.48-0.59-17.6-1.12-26.16,4.25c-1.96,1.23-3.14,3.39-3.3,5.7c-0.15,2.29-0.27,5.79-0.12,10.7
		c0.22,7.72,0.1,12.66-0.06,15.96c-0.05,0.98,1.07,1.56,1.85,0.96c3.55-2.72,11.1-9.05,15.63-22.79
		c3.85-9.73,7.91-13.05,12.21-14.03C128.43,71.32,128.39,70.72,127.96,70.67z"/>
</g>
<g class="section blank-color" data-name="left-back-nape">
	<path class="st1" d="M94.54,48.35c-0.34,3.37-1.24,13.53-0.82,22.26c0.02,0.49-0.49,0.82-0.93,0.59c-2.22-1.18-7.81-3.81-12.9-3.55
		c-0.38,0.02-0.55-0.46-0.26-0.7c0.63-0.51,1.72-1.11,3.49-1.27c3.17-0.29,6.9-3.59,8.06-16.94c0.04-0.47,0.36-0.88,0.81-1.02
		c0.4-0.13,0.92-0.28,1.45-0.38C94.05,47.22,94.6,47.73,94.54,48.35z"/>
</g>
<g class="section blank-color" data-name="right-back-nape">
	<path class="st1" d="M99.28,48.35c0.34,3.37,1.24,13.53,0.82,22.26c-0.02,0.49,0.49,0.82,0.93,0.59c2.22-1.18,7.81-3.81,12.9-3.55
		c0.38,0.02,0.55-0.46,0.26-0.7c-0.63-0.51-1.72-1.11-3.49-1.27c-3.17-0.29-6.9-3.59-8.06-16.94c-0.04-0.47-0.36-0.88-0.81-1.02
		c-0.4-0.13-0.92-0.28-1.45-0.38C99.77,47.22,99.22,47.73,99.28,48.35z"/>
</g>
<g class="section blank-color" data-name="left-back-upper-arm">
	<path class="st1" d="M60.04,93.22c0.02-0.35-0.42-0.53-0.64-0.26c-2.04,2.49-7.33,10.33-5.34,22.52
		c1.61,9.83,1.36,15.06,0.99,17.49c-0.07,0.45,0.51,0.69,0.79,0.32c2.27-2.98,6.96-10.28,6.64-19.39c-0.05-1.3-0.24-2.58-0.49-3.86
		C61.33,106.63,59.76,97.9,60.04,93.22z"/>
	<path class="st1" d="M52.08,112.45c-0.01-0.23-0.34-0.26-0.38-0.04c-0.86,4.02-3.08,15.58-0.67,18.52c0,0,0.88,0.68,1.27-1.13
		C52.66,128.15,52.36,118.32,52.08,112.45z"/>
	<path class="st1" d="M52.61,100.17c-0.21-0.06-4.16,7.32-5.14,14.89c-1.05,8.14-1.06,16.27-0.39,16.27c0.59,0,0.76-8.8,2.14-16.79
		C50.52,107.12,52.76,100.21,52.61,100.17z"/>
</g>
<g class="section blank-color" data-name="right-back-upper-arm">
	<path class="st1" d="M133.78,93.22c-0.02-0.35,0.42-0.53,0.64-0.26c2.04,2.49,7.33,10.33,5.34,22.52
		c-1.61,9.83-1.36,15.06-0.99,17.49c0.07,0.45-0.51,0.69-0.79,0.32c-2.27-2.98-6.96-10.28-6.64-19.39c0.05-1.3,0.24-2.58,0.49-3.86
		C132.49,106.63,134.06,97.9,133.78,93.22z"/>
	<path class="st1" d="M141.74,112.45c0.01-0.23,0.34-0.26,0.38-0.04c0.86,4.02,3.08,15.58,0.67,18.52c0,0-0.88,0.68-1.27-1.13
		C141.16,128.15,141.46,118.32,141.74,112.45z"/>
	<path class="st1" d="M141.21,100.17c0.21-0.06,4.16,7.32,5.14,14.89c1.05,8.14,1.06,16.27,0.39,16.27c-0.59,0-0.76-8.8-2.14-16.79
		C143.3,107.12,141.06,100.21,141.21,100.17z"/>
</g>
<g class="section blank-color" data-name="left-back-arm">
	<path class="st1" d="M33.07,172.46c1.37-2.55,3.99-7.72,6.93-15.15c0.71-1.8,1.52-3.57,2.42-5.29l2.26-4.29
		c0.98-1.85,2.28-2.71,3.74-2.78c1.53-0.08,3.53-0.45,4.92-1.69c0.19-0.17,0.48,0.02,0.39,0.27c-0.81,2.23-3.14,7.69-8.92,15.88
		c-5.17,7.33-9.14,11.51-11.2,13.47C33.33,173.15,32.88,172.81,33.07,172.46z"/>
	<path class="st1" d="M41.29,140.53c0-0.27-0.39-0.32-0.46-0.06c-0.51,1.88-1.71,5.32-4.47,10.42c-3.93,7.26-5.96,15.55-6.61,21.66
		c-0.07,0.65,0.77,0.96,1.13,0.42c1.02-1.53,2.53-3.9,4.08-6.84c3.93-7.41,6.06-15.66,6.31-24.04
		C41.28,141.55,41.29,141.03,41.29,140.53z"/>
	<path class="st1" d="M39.53,139.44c-0.71-0.26-7.77,13.02-12.66,29.55c0,0-1.5,3.49-3.3,7.14c-0.77,1.55-0.23,3.43,1.26,4.33
		l0.92,0.56c0.49,0.3,1.12-0.04,1.13-0.62c0.02-0.87,0.09-2.13,0.3-3.59c0.24-1.74,4.24-15.49,7.79-25.79
		C37.19,144.55,39.75,139.52,39.53,139.44z"/>
</g>
<g class="section blank-color" data-name="right-back-arm">
	<path class="st1" d="M160.75,172.46c-1.37-2.55-3.99-7.72-6.93-15.15c-0.71-1.8-1.52-3.57-2.42-5.29l-2.26-4.29
		c-0.98-1.85-2.28-2.71-3.74-2.78c-1.53-0.08-3.53-0.45-4.92-1.69c-0.19-0.17-0.48,0.02-0.39,0.27c0.81,2.23,3.14,7.69,8.92,15.88
		c5.17,7.33,9.14,11.51,11.2,13.47C160.49,173.15,160.94,172.81,160.75,172.46z"/>
	<path class="st1" d="M152.53,140.53c0-0.27,0.39-0.32,0.46-0.06c0.51,1.88,1.71,5.32,4.47,10.42c3.93,7.26,5.96,15.55,6.61,21.66
		c0.07,0.65-0.77,0.96-1.13,0.42c-1.02-1.53-2.53-3.9-4.08-6.84c-3.93-7.41-6.06-15.66-6.31-24.04
		C152.54,141.55,152.53,141.03,152.53,140.53z"/>
	<path class="st1" d="M154.29,139.44c0.71-0.26,7.77,13.02,12.66,29.55c0,0,1.5,3.49,3.3,7.14c0.77,1.55,0.23,3.43-1.26,4.33
		l-0.92,0.56c-0.49,0.3-1.12-0.04-1.13-0.62c-0.02-0.87-0.09-2.13-0.3-3.59c-0.24-1.74-4.24-15.49-7.79-25.79
		C156.63,144.55,154.07,139.52,154.29,139.44z"/>
</g>
<g class="section blank-color" data-name="left-back-hand">
	<path class="st1" d="M17.73,184.06l-5.87,8.17c-1.05,1.46-0.77,3.47,0.62,4.6c1.48,1.2,3.33,2.91,4.78,4.96
		c0.65,0.91,2.01,0.93,2.67,0.03c2.19-2.95,5.78-9.23,4.25-17.05c0,0-1.39-1.78-4.52-1.76C18.89,183.02,18.18,183.44,17.73,184.06z"
		/>
	<path class="st1" d="M13.69,184.66c-1.23,1.02-5.85,4.7-10.95,7.14c-0.28,0.14-0.46,0.42-0.46,0.73v0.86
		c0,0.31,0.28,0.53,0.58,0.46c1.66-0.43,6.69-2.12,12.52-7.88c0.21-0.2,0.17-0.55-0.07-0.71l-0.94-0.63
		C14.16,184.49,13.88,184.5,13.69,184.66z"/>
	<path class="st1" d="M8.8,197.16l-5.2,12.19c-0.12,0.28-0.16,0.6-0.12,0.9l0.02,0.17c0.06,0.48,0.5,0.83,0.98,0.78l0.22-0.02
		c0.39-0.04,0.74-0.28,0.9-0.64c0.77-1.74,3.1-7.05,4.89-11.3c0.26-0.62,0.15-1.34-0.3-1.85L9.83,197
		C9.53,196.65,8.98,196.74,8.8,197.16z"/>
	<path class="st1" d="M11.53,200.3l-5.19,12.55c-0.36,0.87-0.45,1.83-0.26,2.76h0c0.09,0.42,0.5,0.69,0.93,0.6h0
		c0.44-0.1,0.81-0.4,0.99-0.82l5.62-12.81c0.23-0.53,0.12-1.15-0.29-1.57l-0.88-0.89C12.17,199.84,11.69,199.93,11.53,200.3z"/>
	<path class="st1" d="M14.48,202.78l-4.55,10.61c-0.19,0.44-0.22,0.92-0.08,1.38l0.08,0.27c0.1,0.35,0.42,0.59,0.79,0.59h0.04
		c0.49,0,0.94-0.29,1.14-0.74c0.61-1.39,2.06-4.78,4.26-10.44c0.11-0.27,0.06-0.59-0.13-0.81l-0.81-0.96
		C15.01,202.42,14.61,202.48,14.48,202.78z"/>
	<path class="st1" d="M18.44,204.83c-0.69,1.38-2.03,4.22-2.51,6.39c0,0-0.17,1.16,0.19,1.31c0.53,0.23,1.47-1.31,1.47-1.31
		l2.09-5.22c0.17-0.42,0.21-0.78,0.31-1.3c0,0,0.1-0.86-0.12-0.96C19.44,203.54,18.71,204.3,18.44,204.83z"/>
</g>
<g class="section blank-color" data-name="right-back-hand">
	<path class="st1" d="M176.09,184.06l5.87,8.17c1.05,1.46,0.77,3.47-0.62,4.6c-1.48,1.2-3.33,2.91-4.78,4.96
		c-0.65,0.91-2.01,0.93-2.67,0.03c-2.19-2.95-5.78-9.23-4.25-17.05c0,0,1.39-1.78,4.52-1.76
		C174.93,183.02,175.64,183.44,176.09,184.06z"/>
	<path class="st1" d="M180.13,184.66c1.23,1.02,5.85,4.7,10.95,7.14c0.28,0.14,0.46,0.42,0.46,0.73v0.86c0,0.31-0.28,0.53-0.58,0.46
		c-1.66-0.43-6.69-2.12-12.52-7.88c-0.21-0.2-0.17-0.55,0.07-0.71l0.94-0.63C179.66,184.49,179.94,184.5,180.13,184.66z"/>
	<path class="st1" d="M185.02,197.16l5.2,12.19c0.12,0.28,0.16,0.6,0.12,0.9l-0.02,0.17c-0.06,0.48-0.5,0.83-0.98,0.78l-0.22-0.02
		c-0.39-0.04-0.74-0.28-0.9-0.64c-0.77-1.74-3.1-7.05-4.89-11.3c-0.26-0.62-0.15-1.34,0.3-1.85l0.35-0.39
		C184.29,196.65,184.84,196.74,185.02,197.16z"/>
	<path class="st1" d="M182.29,200.3l5.19,12.55c0.36,0.87,0.45,1.83,0.26,2.76l0,0c-0.09,0.42-0.5,0.69-0.93,0.6l0,0
		c-0.44-0.1-0.81-0.4-0.99-0.82l-5.62-12.81c-0.23-0.53-0.12-1.15,0.29-1.57l0.88-0.89C181.65,199.84,182.13,199.93,182.29,200.3z"
		/>
	<path class="st1" d="M179.34,202.78l4.55,10.61c0.19,0.44,0.22,0.92,0.08,1.38l-0.08,0.27c-0.1,0.35-0.43,0.59-0.79,0.59h-0.04
		c-0.49,0-0.94-0.29-1.14-0.74c-0.61-1.39-2.06-4.78-4.26-10.44c-0.11-0.27-0.06-0.59,0.13-0.81l0.81-0.96
		C178.81,202.42,179.21,202.48,179.34,202.78z"/>
	<path class="st1" d="M175.38,204.83c0.69,1.38,2.03,4.22,2.51,6.39c0,0,0.17,1.16-0.19,1.31c-0.53,0.23-1.47-1.31-1.47-1.31
		l-2.09-5.22c-0.17-0.42-0.21-0.78-0.31-1.3c0,0-0.1-0.86,0.12-0.96C174.38,203.54,175.11,204.3,175.38,204.83z"/>
</g>
</svg>
